<mxfile host="app.diagrams.net" modified="2023-11-06T08:56:33.377Z" agent="Mozilla/5.0 (Windows NT 10.0; Win64; x64) AppleWebKit/537.36 (KHTML, like Gecko) Chrome/116.0.5845.931 YaBrowser/23.9.3.931 Yowser/2.5 Safari/537.36" etag="9ZktRPYF30mBd2KJ-gh9" version="22.0.8" type="device">
  <diagram name="Страница — 1" id="6uj3FvdgJc_sF9chM-nr">
    <mxGraphModel dx="1179" dy="648" grid="0" gridSize="10" guides="1" tooltips="1" connect="1" arrows="1" fold="1" page="1" pageScale="1" pageWidth="827" pageHeight="1169" math="0" shadow="0">
      <root>
        <mxCell id="0" />
        <mxCell id="1" parent="0" />
        <mxCell id="aEMpMd8Cjxd9p7WlHdpB-1" value="Tickets" style="swimlane;fontStyle=0;childLayout=stackLayout;horizontal=1;startSize=26;fillColor=none;horizontalStack=0;resizeParent=1;resizeParentMax=0;resizeLast=0;collapsible=1;marginBottom=0;whiteSpace=wrap;html=1;" vertex="1" parent="1">
          <mxGeometry x="405" y="266" width="201" height="122" as="geometry" />
        </mxCell>
        <mxCell id="aEMpMd8Cjxd9p7WlHdpB-2" value="+ id (primary key): int&lt;br&gt;+ seat_ number: varchar&lt;br&gt;+ price: int&lt;br&gt;+ flight_id (foreign key): int&lt;br&gt;+ passenger_id (foreign key): int&lt;br&gt;+ payment_id (foreign kei): int" style="text;strokeColor=none;fillColor=none;align=left;verticalAlign=top;spacingLeft=4;spacingRight=4;overflow=hidden;rotatable=0;points=[[0,0.5],[1,0.5]];portConstraint=eastwest;whiteSpace=wrap;html=1;" vertex="1" parent="aEMpMd8Cjxd9p7WlHdpB-1">
          <mxGeometry y="26" width="201" height="96" as="geometry" />
        </mxCell>
        <mxCell id="aEMpMd8Cjxd9p7WlHdpB-5" value="Airlines" style="swimlane;fontStyle=0;childLayout=stackLayout;horizontal=1;startSize=26;fillColor=none;horizontalStack=0;resizeParent=1;resizeParentMax=0;resizeLast=0;collapsible=1;marginBottom=0;whiteSpace=wrap;html=1;" vertex="1" parent="1">
          <mxGeometry x="69" y="283" width="140" height="81" as="geometry" />
        </mxCell>
        <mxCell id="aEMpMd8Cjxd9p7WlHdpB-6" value="+ id: int&lt;br&gt;+ name: varchar&lt;br&gt;+ country: varchar" style="text;strokeColor=none;fillColor=none;align=left;verticalAlign=top;spacingLeft=4;spacingRight=4;overflow=hidden;rotatable=0;points=[[0,0.5],[1,0.5]];portConstraint=eastwest;whiteSpace=wrap;html=1;" vertex="1" parent="aEMpMd8Cjxd9p7WlHdpB-5">
          <mxGeometry y="26" width="140" height="55" as="geometry" />
        </mxCell>
        <mxCell id="aEMpMd8Cjxd9p7WlHdpB-10" value="Flights" style="swimlane;fontStyle=0;childLayout=stackLayout;horizontal=1;startSize=26;fillColor=none;horizontalStack=0;resizeParent=1;resizeParentMax=0;resizeLast=0;collapsible=1;marginBottom=0;whiteSpace=wrap;html=1;" vertex="1" parent="1">
          <mxGeometry x="430" y="537" width="230" height="110" as="geometry" />
        </mxCell>
        <mxCell id="aEMpMd8Cjxd9p7WlHdpB-11" value="+ id (primary key): int&lt;br&gt;+&amp;nbsp;departure_airport_id (foreign_key): int&lt;br&gt;+&amp;nbsp;arrival_airport_id (foreign key): int&lt;br&gt;+&amp;nbsp;departure_datetime: datetime&lt;br&gt;+&amp;nbsp;arrival_datetime: datetime" style="text;strokeColor=none;fillColor=none;align=left;verticalAlign=top;spacingLeft=4;spacingRight=4;overflow=hidden;rotatable=0;points=[[0,0.5],[1,0.5]];portConstraint=eastwest;whiteSpace=wrap;html=1;" vertex="1" parent="aEMpMd8Cjxd9p7WlHdpB-10">
          <mxGeometry y="26" width="230" height="84" as="geometry" />
        </mxCell>
        <mxCell id="aEMpMd8Cjxd9p7WlHdpB-14" value="AirlinesFlights" style="swimlane;fontStyle=0;childLayout=stackLayout;horizontal=1;startSize=26;fillColor=none;horizontalStack=0;resizeParent=1;resizeParentMax=0;resizeLast=0;collapsible=1;marginBottom=0;whiteSpace=wrap;html=1;" vertex="1" parent="1">
          <mxGeometry x="117" y="510" width="179" height="84" as="geometry" />
        </mxCell>
        <mxCell id="aEMpMd8Cjxd9p7WlHdpB-15" value="+ id (primary key): int&lt;br&gt;+ airline_id (foreign key): int&lt;br&gt;+ flight_id (foreign key): int" style="text;strokeColor=none;fillColor=none;align=left;verticalAlign=top;spacingLeft=4;spacingRight=4;overflow=hidden;rotatable=0;points=[[0,0.5],[1,0.5]];portConstraint=eastwest;whiteSpace=wrap;html=1;" vertex="1" parent="aEMpMd8Cjxd9p7WlHdpB-14">
          <mxGeometry y="26" width="179" height="58" as="geometry" />
        </mxCell>
        <mxCell id="aEMpMd8Cjxd9p7WlHdpB-18" value="" style="edgeStyle=entityRelationEdgeStyle;fontSize=12;html=1;endArrow=ERmandOne;startArrow=ERmandOne;rounded=0;exitX=0.457;exitY=1.073;exitDx=0;exitDy=0;exitPerimeter=0;entryX=0.5;entryY=0;entryDx=0;entryDy=0;" edge="1" parent="1" source="aEMpMd8Cjxd9p7WlHdpB-6" target="aEMpMd8Cjxd9p7WlHdpB-14">
          <mxGeometry width="100" height="100" relative="1" as="geometry">
            <mxPoint x="362" y="445" as="sourcePoint" />
            <mxPoint x="462" y="345" as="targetPoint" />
          </mxGeometry>
        </mxCell>
        <mxCell id="aEMpMd8Cjxd9p7WlHdpB-19" value="" style="edgeStyle=entityRelationEdgeStyle;fontSize=12;html=1;endArrow=ERmandOne;startArrow=ERmandOne;rounded=0;exitX=1.006;exitY=0.31;exitDx=0;exitDy=0;exitPerimeter=0;" edge="1" parent="1" source="aEMpMd8Cjxd9p7WlHdpB-15" target="aEMpMd8Cjxd9p7WlHdpB-11">
          <mxGeometry width="100" height="100" relative="1" as="geometry">
            <mxPoint x="143" y="378" as="sourcePoint" />
            <mxPoint x="217" y="520" as="targetPoint" />
          </mxGeometry>
        </mxCell>
        <mxCell id="aEMpMd8Cjxd9p7WlHdpB-20" value="" style="edgeStyle=entityRelationEdgeStyle;fontSize=12;html=1;endArrow=ERoneToMany;rounded=0;entryX=0.498;entryY=1.012;entryDx=0;entryDy=0;entryPerimeter=0;exitX=0.5;exitY=0;exitDx=0;exitDy=0;" edge="1" parent="1" source="aEMpMd8Cjxd9p7WlHdpB-10" target="aEMpMd8Cjxd9p7WlHdpB-2">
          <mxGeometry width="100" height="100" relative="1" as="geometry">
            <mxPoint x="362" y="445" as="sourcePoint" />
            <mxPoint x="462" y="345" as="targetPoint" />
          </mxGeometry>
        </mxCell>
        <mxCell id="aEMpMd8Cjxd9p7WlHdpB-21" value="Passengers" style="swimlane;fontStyle=0;childLayout=stackLayout;horizontal=1;startSize=26;fillColor=none;horizontalStack=0;resizeParent=1;resizeParentMax=0;resizeLast=0;collapsible=1;marginBottom=0;whiteSpace=wrap;html=1;" vertex="1" parent="1">
          <mxGeometry x="149" y="61" width="216" height="127" as="geometry" />
        </mxCell>
        <mxCell id="aEMpMd8Cjxd9p7WlHdpB-22" value="+ id (primary key): int&lt;br&gt;+ first_name: varchar&lt;br&gt;+ last_name: varchar&lt;br&gt;+ dt_birth: date&lt;br&gt;+ email: varchar&lt;br&gt;+ passport_detail: varchar" style="text;strokeColor=none;fillColor=none;align=left;verticalAlign=top;spacingLeft=4;spacingRight=4;overflow=hidden;rotatable=0;points=[[0,0.5],[1,0.5]];portConstraint=eastwest;whiteSpace=wrap;html=1;" vertex="1" parent="aEMpMd8Cjxd9p7WlHdpB-21">
          <mxGeometry y="26" width="216" height="101" as="geometry" />
        </mxCell>
        <mxCell id="aEMpMd8Cjxd9p7WlHdpB-25" value="" style="edgeStyle=entityRelationEdgeStyle;fontSize=12;html=1;endArrow=ERoneToMany;rounded=0;exitX=1.009;exitY=0.347;exitDx=0;exitDy=0;exitPerimeter=0;" edge="1" parent="1" source="aEMpMd8Cjxd9p7WlHdpB-22" target="aEMpMd8Cjxd9p7WlHdpB-2">
          <mxGeometry width="100" height="100" relative="1" as="geometry">
            <mxPoint x="362" y="445" as="sourcePoint" />
            <mxPoint x="462" y="345" as="targetPoint" />
          </mxGeometry>
        </mxCell>
        <mxCell id="aEMpMd8Cjxd9p7WlHdpB-26" value="Payments" style="swimlane;fontStyle=0;childLayout=stackLayout;horizontal=1;startSize=26;fillColor=none;horizontalStack=0;resizeParent=1;resizeParentMax=0;resizeLast=0;collapsible=1;marginBottom=0;whiteSpace=wrap;html=1;" vertex="1" parent="1">
          <mxGeometry x="566" y="61" width="215" height="83" as="geometry" />
        </mxCell>
        <mxCell id="aEMpMd8Cjxd9p7WlHdpB-27" value="+ id (primary key): int&lt;br&gt;+ transaction_datetime: datetime&lt;br&gt;+ amount: int" style="text;strokeColor=none;fillColor=none;align=left;verticalAlign=top;spacingLeft=4;spacingRight=4;overflow=hidden;rotatable=0;points=[[0,0.5],[1,0.5]];portConstraint=eastwest;whiteSpace=wrap;html=1;" vertex="1" parent="aEMpMd8Cjxd9p7WlHdpB-26">
          <mxGeometry y="26" width="215" height="57" as="geometry" />
        </mxCell>
        <mxCell id="aEMpMd8Cjxd9p7WlHdpB-30" value="" style="edgeStyle=entityRelationEdgeStyle;fontSize=12;html=1;endArrow=ERmandOne;startArrow=ERmandOne;rounded=0;entryX=0;entryY=0.211;entryDx=0;entryDy=0;entryPerimeter=0;exitX=0.5;exitY=0;exitDx=0;exitDy=0;" edge="1" parent="1" source="aEMpMd8Cjxd9p7WlHdpB-1" target="aEMpMd8Cjxd9p7WlHdpB-27">
          <mxGeometry width="100" height="100" relative="1" as="geometry">
            <mxPoint x="362" y="445" as="sourcePoint" />
            <mxPoint x="462" y="345" as="targetPoint" />
          </mxGeometry>
        </mxCell>
        <mxCell id="aEMpMd8Cjxd9p7WlHdpB-31" value="Airports" style="swimlane;fontStyle=0;childLayout=stackLayout;horizontal=1;startSize=26;fillColor=none;horizontalStack=0;resizeParent=1;resizeParentMax=0;resizeLast=0;collapsible=1;marginBottom=0;whiteSpace=wrap;html=1;" vertex="1" parent="1">
          <mxGeometry x="745" y="417" width="158" height="84" as="geometry" />
        </mxCell>
        <mxCell id="aEMpMd8Cjxd9p7WlHdpB-32" value="+ id (primary key): int&lt;br&gt;+ name: varchar&lt;br&gt;+ location: varchar" style="text;strokeColor=none;fillColor=none;align=left;verticalAlign=top;spacingLeft=4;spacingRight=4;overflow=hidden;rotatable=0;points=[[0,0.5],[1,0.5]];portConstraint=eastwest;whiteSpace=wrap;html=1;" vertex="1" parent="aEMpMd8Cjxd9p7WlHdpB-31">
          <mxGeometry y="26" width="158" height="58" as="geometry" />
        </mxCell>
        <mxCell id="aEMpMd8Cjxd9p7WlHdpB-35" value="" style="edgeStyle=entityRelationEdgeStyle;fontSize=12;html=1;endArrow=ERoneToMany;rounded=0;exitX=-0.013;exitY=0.345;exitDx=0;exitDy=0;exitPerimeter=0;entryX=1.004;entryY=0.422;entryDx=0;entryDy=0;entryPerimeter=0;" edge="1" parent="1" source="aEMpMd8Cjxd9p7WlHdpB-32" target="aEMpMd8Cjxd9p7WlHdpB-11">
          <mxGeometry width="100" height="100" relative="1" as="geometry">
            <mxPoint x="580" y="445" as="sourcePoint" />
            <mxPoint x="680" y="345" as="targetPoint" />
          </mxGeometry>
        </mxCell>
      </root>
    </mxGraphModel>
  </diagram>
</mxfile>
